<svg xmlns="http://www.w3.org/2000/svg" width="52.529" height="62.002" viewBox="0 0 52.529 62.002"><g transform="translate(-458.148 -2674.789)"><path d="M236.265,20737.221a24.079,24.079,0,1,0,24.079,24.078A24.114,24.114,0,0,0,236.265,20737.221Zm0,50.344a26.282,26.282,0,1,1,26.265-26.3A26.3,26.3,0,0,1,236.265,20787.564Z" transform="translate(248.148 -18050.773)" fill="#313131"/><path d="M935,20592.314h2.221V20586H935Z" transform="translate(-451.698 -17906.943)" fill="#313131"/><path d="M758.268,20465.221a2.109,2.109,0,0,0-1.457.59,2.041,2.041,0,0,0-.59,1.457,2.106,2.106,0,0,0,.59,1.457,2.04,2.04,0,0,0,1.457.59h6.28a2.1,2.1,0,0,0,1.457-.59,2.047,2.047,0,0,0-1.457-3.5Zm6.28,6.314h-6.28a4.268,4.268,0,1,1,0-8.535h6.28a4.266,4.266,0,0,1,4.268,4.268,4.318,4.318,0,0,1-1.249,3.02A4.255,4.255,0,0,1,764.548,20471.535Z" transform="translate(-276.977 -17788.211)" fill="#313131"/><path d="M1467.135,20791.426l-1.561-1.562,1.492-1.49a.58.58,0,0,0,.173-.418.593.593,0,0,0-.173-.418l-1.18-1.178a.585.585,0,0,0-.833,0l-1.492,1.492-1.561-1.562,1.492-1.492a2.753,2.753,0,0,1,1.978-.8,2.874,2.874,0,0,1,1.978.8l1.18,1.182a2.849,2.849,0,0,1,0,3.955Z" transform="translate(-960.413 -18098.074)" fill="#313131"/><path d="M260.325,20791.426l-1.492-1.492a2.941,2.941,0,0,1-.833-1.979,2.642,2.642,0,0,1,.833-1.977l1.18-1.182a2.753,2.753,0,0,1,1.978-.8,2.813,2.813,0,0,1,1.978.8l1.492,1.492-1.561,1.563-1.492-1.492a.585.585,0,0,0-.833,0l-1.18,1.178a.584.584,0,0,0-.173.418.73.73,0,0,0,.173.418l1.492,1.49Z" transform="translate(201.814 -18098.074)" fill="#313131"/><path d="M967,20888v17.834a3.168,3.168,0,0,1,3.157,3.156h17.834A21,21,0,0,0,967,20888Z" transform="translate(-482.587 -18198.467)" fill="#ccc"/><path d="M1046.416,21493a2.919,2.919,0,0,1-.416,1.563l15.44,8.916a21.018,21.018,0,0,0,2.81-10.479Z" transform="translate(-558.846 -18782.475)" fill="#fdb900"/><path d="M1201.908,20956.678l-1.908-1.107,1.457-2.568,1.908,1.109Z" transform="translate(-707.503 -18261.213)" fill="#313131"/><path d="M935,20890.949h2.221V20888H935Z" transform="translate(-451.698 -18198.467)" fill="#313131"/><path d="M638.492,20956.678l-1.492-2.566,1.943-1.109,1.457,2.568Z" transform="translate(-164.037 -18261.213)" fill="#313131"/><path d="M430.533,21166.4l-2.533-1.494,1.11-1.906,2.533,1.457Z" transform="translate(37.712 -18463.924)" fill="#313131"/><path d="M363,21463.219h2.914V21461H363Z" transform="translate(100.456 -18751.584)" fill="#313131"/><path d="M429.11,21728.4l-1.11-1.908,2.533-1.492,1.11,1.943Z" transform="translate(37.712 -19006.426)" fill="#313131"/><path d="M638.943,21930.678l-1.943-1.111,1.492-2.566,1.908,1.109Z" transform="translate(-164.037 -19201.416)" fill="#313131"/><path d="M935,22015.949h2.221V22013H935Z" transform="translate(-451.698 -19284.434)" fill="#313131"/><path d="M1201.457,21930.678l-1.457-2.568,1.908-1.109,1.457,2.566Z" transform="translate(-707.503 -19201.416)" fill="#313131"/><path d="M1404.533,21728.4l-2.533-1.457,1.11-1.943,2.533,1.492Z" transform="translate(-902.495 -19006.426)" fill="#313131"/><path d="M1487,21463.219h2.949V21461H1487Z" transform="translate(-984.546 -18751.584)" fill="#313131"/><path d="M1403.11,21166.4l-1.11-1.943,2.533-1.457,1.11,1.906Z" transform="translate(-902.495 -18463.924)" fill="#313131"/><path d="M848.268,21371.256a2.047,2.047,0,1,0,2.047,2.047A2.051,2.051,0,0,0,848.268,21371.256Zm0,6.279a4.267,4.267,0,1,1,4.268-4.268A4.265,4.265,0,0,1,848.268,21377.535Z" transform="translate(-363.855 -18662.777)" fill="#313131"/><path d="M1058,21463.219h7.98V21461H1058Z" transform="translate(-570.43 -18751.584)" fill="#313131"/></g></svg>