<svg xmlns="http://www.w3.org/2000/svg" width="71.984" height="62" viewBox="0 0 71.984 62"><g transform="translate(-736.871 -598.783)"><rect width="46" height="62" transform="translate(736.926 598.783)" fill="none"/><path d="M3250,3488.494h19.866V3486H3250Z" transform="translate(-2487.069 -2860.395)" fill="#313131"/><path d="M2592.179,3501.426H2581V3486h6.038v2.493h-3.544v10.439h8.686Z" transform="translate(-1844.129 -2860.395)" fill="#313131"/><path d="M4153.179,3501.426H4142v-2.493h8.686v-10.439h-3.739V3486h6.232Z" transform="translate(-3344.323 -2860.395)" fill="#313131"/><path d="M3250,3820.493h19.866V3818H3250Z" transform="translate(-2487.069 -3179.462)" fill="#313131"/><path d="M2706.493,2906.593h17.529v-23.138h-.2l-7.673,17.529h-9.661Zm20.022,2.493H2704v-10.556h10.517l7.674-17.529h4.324Z" transform="translate(-1962.337 -2278.961)" fill="#313131"/><path d="M3730.493,2906.593h17.373v-5.609h-9.5l-7.674-17.529h-.195Zm19.866,2.493H3728V2881h4.323l7.674,17.529h10.362Z" transform="translate(-2946.45 -2278.961)" fill="#313131"/><path d="M3730.493,3768.493v8.1l2.8-6.544h9.621v-1.558Zm.545,13.127H3728V3766h17.372v6.544h-10.478Z" transform="translate(-2946.45 -3129.488)" fill="#313131"/><path d="M2837.493,3770.051h9.621l2.8,6.544v-8.1h-12.425Zm14.88,11.569h-3.039l-3.856-9.075H2835V3766h17.374Z" transform="translate(-2088.234 -3129.488)" fill="#313131"/><path d="M2708,3654.493h2.493V3652H2708Z" transform="translate(-1966.182 -3019.929)" fill="#313131"/><path d="M2836,3654.493h2.454V3652H2836Z" transform="translate(-2089.196 -3019.929)" fill="#313131"/><path d="M2963,3654.493h2.493V3652H2963Z" transform="translate(-2211.249 -3019.929)" fill="#313131"/><path d="M3091,3654.493h2.454V3652H3091Z" transform="translate(-2334.263 -3019.929)" fill="#313131"/><path d="M3218,3654.493h2.494V3652H3218Z" transform="translate(-2456.316 -3019.929)" fill="#313131"/><path d="M3345,3654.493h2.493V3652H3345Z" transform="translate(-2578.369 -3019.929)" fill="#313131"/><path d="M3473,3654.493h2.492V3652H3473Z" transform="translate(-2701.383 -3019.929)" fill="#313131"/><path d="M3600,3654.493h2.493V3652H3600Z" transform="translate(-2823.436 -3019.929)" fill="#313131"/><path d="M3728,3654.493h2.493V3652H3728Z" transform="translate(-2946.45 -3019.929)" fill="#313131"/><path d="M3855,3654.493h2.493V3652H3855Z" transform="translate(-3068.503 -3019.929)" fill="#313131"/><path d="M3983,3654.493h2.455V3652H3983Z" transform="translate(-3191.517 -3019.929)" fill="#313131"/><path d="M4110,3654.493h2.493V3652H4110Z" transform="translate(-3313.57 -3019.929)" fill="#313131"/><path d="M4238,3654.493h2.454V3652H4238Z" transform="translate(-3436.583 -3019.929)" fill="#313131"/><path d="M3299.373,2814.687a8.687,8.687,0,1,0-8.687,8.686A8.695,8.695,0,0,0,3299.373,2814.687Z" transform="translate(-2517.823 -2206.883)" fill="#fdb900"/><path d="M3363.726,2884.494a3.233,3.233,0,1,0,3.233,3.233A3.225,3.225,0,0,0,3363.726,2884.494Zm0,8.92a5.707,5.707,0,1,1,5.726-5.726A5.735,5.735,0,0,1,3363.726,2893.413Z" transform="translate(-2590.862 -2279.923)" fill="#fff"/></g></svg>