<svg xmlns="http://www.w3.org/2000/svg" width="58" height="61.943" viewBox="0 0 58 61.943"><path d="M5824.765,4116.255H5806V4110h2.426v3.829h13.913V4110h2.426Z" transform="translate(-5786.401 -4054.312)" fill="#313131"/><path d="M5715,4213.426h25.664V4211H5715Z" transform="translate(-5698.851 -4151.483)" fill="#313131"/><path d="M5346.962,2868.031H5289v-36.885a3.288,3.288,0,0,1,.91-2.237,3.123,3.123,0,0,1,2.237-.91h7.2v2.426h-7.2a.771.771,0,0,0-.531.227.747.747,0,0,0-.228.531v34.459h53.147v-34.459a.749.749,0,0,0-.227-.531.772.772,0,0,0-.531-.227h-7.2V2828h7.2a3.034,3.034,0,0,1,2.237.948,3.121,3.121,0,0,1,.91,2.237v36.885Z" transform="translate(-5289 -2820.911)" fill="#313131"/><path d="M5691,2829.426h4.814V2827H5691Z" transform="translate(-5675.761 -2819.949)" fill="#313131"/><path d="M5436,3002.924h4.814V2974H5436Z" transform="translate(-5430.427 -2961.376)" fill="#ccc"/><path d="M5691,3002.924h4.814V2974H5691Z" transform="translate(-5675.761 -2961.376)" fill="#ccc"/><path d="M6544,3002.924h4.853V2974H6544Z" transform="translate(-6496.425 -2961.376)" fill="#ccc"/><path d="M5292.388,3821.464v3.374a.748.748,0,0,0,.228.531.772.772,0,0,0,.531.228h51.631a.772.772,0,0,0,.531-.228.748.748,0,0,0,.228-.531v-3.374Zm52.39,6.521h-51.631a3.16,3.16,0,0,1-2.236-.948,3.121,3.121,0,0,1-.91-2.237V3819h57.962v5.8a3.236,3.236,0,0,1-3.184,3.184Z" transform="translate(-5289.962 -3774.344)" fill="#313131"/><path d="M5538.814,2649.757l-1.289-2.919-1.327,2.919-2.2-.986,3.525-7.771,3.525,7.771Z" transform="translate(-5524.712 -2641)" fill="#313131"/><path d="M5537.278,2861.5h-2.426v-32.071h-2.426V2861.5H5530v-33.284a1.2,1.2,0,0,1,1.213-1.213h4.814a1.2,1.2,0,0,1,1.213,1.213V2861.5Z" transform="translate(-5520.864 -2819.949)" fill="#313131"/><path d="M5815.948,2706.6h-2.388v-32.791l-5.421-5.421h-19.712V2706.6H5786V2666h23.124l6.824,6.823Z" transform="translate(-5767.16 -2665.052)" fill="#313131"/><path d="M6358.316,2704.354H6351V2697h2.426v4.928h4.89Z" transform="translate(-6310.741 -2694.877)" fill="#313131"/><path d="M5997.241,2974a7.239,7.239,0,0,0-1.934,14.216l1.934-4.132,1.933,4.132a7.239,7.239,0,0,0-1.933-14.216Z" transform="translate(-5963.426 -2961.376)" fill="#fdb900"/><path d="M6151.426,3485.08H6149V3480h2.426Z" transform="translate(-6116.398 -3448.195)" fill="#313131"/><path d="M6021.829,3175.728h4.7l-2.35-5.042Zm8.492,2.426H6018l6.141-13.154,6.141,13.154Z" transform="translate(-5990.365 -3145.136)" fill="#313131"/></svg>